<?xml version="1.0" encoding="UTF-8" standalone="no"?>
<!DOCTYPE svg PUBLIC "-//W3C//DTD SVG 1.1//EN"
 "http://www.w3.org/Graphics/SVG/1.1/DTD/svg11.dtd">
<!-- Generated by graphviz version 2.42.4 (0)
 -->
<!-- Title: hello_world Pages: 1 -->
<svg width="1004pt" height="44pt"
 viewBox="0.00 0.00 1003.64 44.00" xmlns="http://www.w3.org/2000/svg" xmlns:xlink="http://www.w3.org/1999/xlink">
<g id="graph0" class="graph" transform="scale(1 1) rotate(0) translate(4 40)">
<title>hello_world</title>
<polygon fill="white" stroke="transparent" points="-4,4 -4,-40 999.64,-40 999.64,4 -4,4"/>
<!-- __start -->
<g id="node1" class="node">
<title>__start</title>
<ellipse fill="black" stroke="black" cx="4.32" cy="-18" rx="4.32" ry="4.32"/>
</g>
<!-- Established -->
<g id="node3" class="node">
<title>Established</title>
<path fill="none" stroke="black" d="M119.64,-36C119.64,-36 57.64,-36 57.64,-36 51.64,-36 45.64,-30 45.64,-24 45.64,-24 45.64,-12 45.64,-12 45.64,-6 51.64,0 57.64,0 57.64,0 119.64,0 119.64,0 125.64,0 131.64,-6 131.64,-12 131.64,-12 131.64,-24 131.64,-24 131.64,-30 125.64,-36 119.64,-36"/>
<text text-anchor="middle" x="88.64" y="-14.3" font-family="Helvetica,sans-Serif" font-size="14.00">Established</text>
</g>
<!-- __start&#45;&gt;Established -->
<g id="edge1" class="edge">
<title>__start&#45;&gt;Established</title>
<path fill="none" stroke="black" d="M8.86,-18C13.95,-18 23.98,-18 35.23,-18"/>
<polygon fill="black" stroke="black" points="35.33,-21.5 45.33,-18 35.33,-14.5 35.33,-21.5"/>
</g>
<!-- Closed -->
<g id="node2" class="node">
<title>Closed</title>
<path fill="none" stroke="black" stroke-width="2" d="M983.64,-36C983.64,-36 948.64,-36 948.64,-36 942.64,-36 936.64,-30 936.64,-24 936.64,-24 936.64,-12 936.64,-12 936.64,-6 942.64,0 948.64,0 948.64,0 983.64,0 983.64,0 989.64,0 995.64,-6 995.64,-12 995.64,-12 995.64,-24 995.64,-24 995.64,-30 989.64,-36 983.64,-36"/>
<text text-anchor="middle" x="966.14" y="-14.3" font-family="Helvetica,sans-Serif" font-size="14.00">Closed</text>
</g>
<!-- Fin_Wait_1 -->
<g id="node4" class="node">
<title>Fin_Wait_1</title>
<path fill="none" stroke="black" d="M359.64,-36C359.64,-36 298.64,-36 298.64,-36 292.64,-36 286.64,-30 286.64,-24 286.64,-24 286.64,-12 286.64,-12 286.64,-6 292.64,0 298.64,0 298.64,0 359.64,0 359.64,0 365.64,0 371.64,-6 371.64,-12 371.64,-12 371.64,-24 371.64,-24 371.64,-30 365.64,-36 359.64,-36"/>
<text text-anchor="middle" x="329.14" y="-14.3" font-family="Helvetica,sans-Serif" font-size="14.00">Fin_Wait_1</text>
</g>
<!-- Established&#45;&gt;Fin_Wait_1 -->
<g id="edge2" class="edge">
<title>Established&#45;&gt;Fin_Wait_1</title>
<path fill="none" stroke="black" d="M131.73,-18C172.09,-18 233.11,-18 276.42,-18"/>
<polygon fill="black" stroke="black" points="276.47,-21.5 286.47,-18 276.47,-14.5 276.47,-21.5"/>
<text text-anchor="middle" x="209.14" y="-21.8" font-family="Helvetica,sans-Serif" font-size="14.00">Release / Send_Fin</text>
</g>
<!-- Fin_Wait_2 -->
<g id="node5" class="node">
<title>Fin_Wait_2</title>
<path fill="none" stroke="black" d="M562.64,-36C562.64,-36 501.64,-36 501.64,-36 495.64,-36 489.64,-30 489.64,-24 489.64,-24 489.64,-12 489.64,-12 489.64,-6 495.64,0 501.64,0 501.64,0 562.64,0 562.64,0 568.64,0 574.64,-6 574.64,-12 574.64,-12 574.64,-24 574.64,-24 574.64,-30 568.64,-36 562.64,-36"/>
<text text-anchor="middle" x="532.14" y="-14.3" font-family="Helvetica,sans-Serif" font-size="14.00">Fin_Wait_2</text>
</g>
<!-- Fin_Wait_1&#45;&gt;Fin_Wait_2 -->
<g id="edge3" class="edge">
<title>Fin_Wait_1&#45;&gt;Fin_Wait_2</title>
<path fill="none" stroke="black" d="M371.79,-18C403.05,-18 446.04,-18 479.49,-18"/>
<polygon fill="black" stroke="black" points="479.55,-21.5 489.55,-18 479.55,-14.5 479.55,-21.5"/>
<text text-anchor="middle" x="430.64" y="-21.8" font-family="Helvetica,sans-Serif" font-size="14.00">Ack [Is_Valid]</text>
</g>
<!-- Timed_Wait -->
<g id="node6" class="node">
<title>Timed_Wait</title>
<path fill="none" stroke="black" d="M838.64,-36C838.64,-36 773.64,-36 773.64,-36 767.64,-36 761.64,-30 761.64,-24 761.64,-24 761.64,-12 761.64,-12 761.64,-6 767.64,0 773.64,0 773.64,0 838.64,0 838.64,0 844.64,0 850.64,-6 850.64,-12 850.64,-12 850.64,-24 850.64,-24 850.64,-30 844.64,-36 838.64,-36"/>
<text text-anchor="middle" x="806.14" y="-14.3" font-family="Helvetica,sans-Serif" font-size="14.00">Timed_Wait</text>
</g>
<!-- Fin_Wait_2&#45;&gt;Timed_Wait -->
<g id="edge4" class="edge">
<title>Fin_Wait_2&#45;&gt;Timed_Wait</title>
<path fill="none" stroke="black" d="M574.75,-18C622.04,-18 699.39,-18 751.27,-18"/>
<polygon fill="black" stroke="black" points="751.28,-21.5 761.28,-18 751.28,-14.5 751.28,-21.5"/>
<text text-anchor="middle" x="668.14" y="-21.8" font-family="Helvetica,sans-Serif" font-size="14.00">Fin [Is_Valid] / Send_Ack</text>
</g>
<!-- Timed_Wait&#45;&gt;Closed -->
<g id="edge5" class="edge">
<title>Timed_Wait&#45;&gt;Closed</title>
<path fill="none" stroke="black" d="M850.73,-18C874.5,-18 903.65,-18 926.58,-18"/>
<polygon fill="black" stroke="black" points="926.63,-21.5 936.63,-18 926.63,-14.5 926.63,-21.5"/>
<text text-anchor="middle" x="893.64" y="-21.8" font-family="Helvetica,sans-Serif" font-size="14.00">Timeout</text>
</g>
</g>
</svg>
